<svg version="1.2" baseProfile="tiny-ps" xmlns="http://www.w3.org/2000/svg" viewBox="0 0 702 684" width="702" height="684">
	<title>Job 02-ai</title>
	<style>
		tspan { white-space:pre }
		.shp0 { fill: #393531 } 
		.shp1 { fill: #f2f2f2 } 
		.shp2 { fill: #00a39f } 
		.shp3 { fill: #dea16f } 
		.shp4 { fill: #bf7c4b } 
		.shp5 { fill: #362a2b } 
		.shp6 { fill: #e4ebea } 
		.shp7 { fill: #a67c52 } 
		.shp8 { fill: #e6e6e6 } 
		.shp9 { fill: #ffffff } 
		.shp10 { fill: #4d4d4d } 
		.shp11 { fill: #1a1e21 } 
		.shp12 { fill: #d3905e } 
		.shp13 { fill: #edeb9a } 
		.shp14 { fill: #f0a081 } 
		.shp15 { fill: #666666 } 
		.shp16 { fill: #2dcfd3 } 
		.shp17 { fill: #20bcbc } 
	</style>
	<g id="Layer 1">
		<g id="&lt;Group&gt;">
			<path id="&lt;Path&gt;" class="shp0" d="M432.26 1445.55C425.26 1448.21 426.34 1459.47 425.71 1465.35C425 1471.88 425.96 1480.59 430.47 1485.8C436.02 1492.23 448.31 1491.84 455.95 1493.09C482.34 1497.39 526.76 1510.02 548.57 1486.51C556.15 1478.34 555.35 1463.81 541.54 1464.56C535.29 1464.89 533.34 1465.67 526.87 1463.3C516.04 1459.32 504.9 1453.96 495.93 1446.64C491.77 1443.24 487.98 1434.31 482.94 1432.79C472.56 1429.63 468.8 1443.65 464.02 1446.7C458.4 1450.3 450.61 1450.88 444.34 1449.03C440.64 1447.92 436.25 1444.04 432.26 1445.55Z" />
			<path id="&lt;Path&gt;" class="shp1" d="M428.46 1444.92C427.92 1452.68 428.33 1461.31 436.93 1464.22C441.95 1465.92 448.54 1461.92 453.17 1460.65C463.09 1457.92 492.04 1454.6 487.72 1438.95C486.34 1433.9 483.8 1429.48 482.83 1424.33C481.55 1417.5 481.93 1408.57 475.04 1404.76C466.91 1400.25 456.15 1403.69 447.61 1404.34C440.71 1404.86 434.34 1404.59 427.83 1407.14C427.31 1419.36 429.59 1431.11 428.58 1443.39C428.53 1443.89 428.5 1444.4 428.46 1444.92Z" />
			<path id="&lt;Path&gt;" class="shp0" d="M237.55 1428.03C240.38 1434.54 215.25 1445.8 211.14 1447.96C200.58 1453.52 188.08 1460.26 176.02 1460.81C167.14 1461.22 161.79 1460.43 154.57 1467.44C143.61 1478.09 139.68 1498.17 152.05 1509.32C164.72 1520.75 188.43 1518.63 203.47 1514.5C222.7 1509.26 243.18 1507.91 261.37 1500.12C270 1496.44 279.5 1494.66 287.43 1489.46C291.19 1487.01 294.87 1483.59 296.08 1479.16C297.75 1473.07 296.79 1467.08 295.79 1460.98C295.28 1457.91 293.85 1455.12 293.16 1452.02C292.65 1449.69 292.2 1447.27 291.08 1445.15C288.5 1440.25 283.12 1441.16 278.25 1441.01C272.86 1440.86 267.45 1440.83 262.06 1440.34C252.97 1439.53 241.62 1437.39 237.55 1428.03Z" />
			<path id="&lt;Path&gt;" class="shp1" d="M236.82 1427.64C235.89 1432.34 235.24 1437.07 235.07 1442.07C234.91 1446.89 232.86 1452.4 234.87 1457C236.59 1460.96 240.7 1463.28 244.36 1465.16C250.7 1468.43 256.03 1467.62 263.08 1467.15C271.87 1466.56 287.42 1468.12 292.61 1459.05C295.14 1454.63 293.12 1447.27 293.53 1442.39C294.52 1430.58 295.48 1418.69 297.73 1406.98C299.22 1399.23 290.69 1401.51 285.99 1400.82C277.84 1399.64 269.75 1397.51 261.5 1396.67C256.17 1396.13 250.21 1394.48 245.99 1398.66C242.23 1402.39 241.64 1408.4 240.33 1413.28C239 1418.21 237.77 1422.9 236.82 1427.64Z" />
			<path id="&lt;Path&gt;" class="shp2" d="M428.04 406.75C432.86 417.92 436.46 429.6 439.27 441.42C443.13 457.68 448.98 461.16 459.8 473.39C469.13 483.92 475.58 501.7 477.69 515.36C478.64 521.51 479.5 529.87 474.17 534.41C468.24 539.48 452.78 537.46 460.33 527.41C465.72 520.23 471.17 521.67 471.31 511.52C471.41 505.15 469.05 498.22 466.48 492.49C461.44 481.2 451.72 468.7 438.16 468.57C415.44 468.37 409.03 507.91 419.43 523.13C423.1 528.5 431.63 526.18 433.73 531.88C436.7 539.93 427.2 541.76 422.17 542.8C414.23 544.43 410.54 517.73 409.96 513.92C408.98 507.5 408.63 500.34 409.16 493.73C409.92 484.32 413 478.79 419.03 472.27C424.37 466.5 431.97 460.79 432.27 452.22C432.62 442.01 425.82 429.77 422.74 420.18C418.38 406.58 413.32 392.52 404.3 381.23C378.57 349.06 336.45 351.37 307.89 370.06C297.8 376.67 287.53 385.49 279.44 397.63C266.78 416.64 257.82 444.41 258.85 473.15C259.43 489.19 263.77 504.38 264.47 520.09C264.9 529.81 262.33 531.31 258.62 523.71C253.15 512.45 253.47 496.54 253.06 482.84C252.1 450.57 258.21 417.41 272.6 395.14C285.59 375.03 301.66 362.2 318.81 355.39C335.59 348.74 353.86 342.81 371.05 348.28C397.29 356.64 415.2 378.73 426.36 402.98C426.95 404.23 427.5 405.49 428.04 406.75Z" />
			<g id="&lt;Group&gt;">
				<path id="&lt;Path&gt;" class="shp3" d="M315.12 334.93L315.12 406.92L347.45 424.63L379.79 397.16L379.79 333.71L315.12 334.93Z" />
				<path id="&lt;Path&gt;" class="shp4" d="M315.12 334.93C314.99 356.47 318.86 365.95 340.08 373.5C377.07 386.68 379.79 365 379.79 333.71C379.79 333.91 321.17 334.82 315.12 334.93Z" />
				<path id="&lt;Path&gt;" class="shp3" d="M458.48 292.53C455.78 291.51 409.98 354.76 347.75 354.76C285.52 354.76 242.46 289.79 242.02 292.53C241.6 295.27 220.55 289.79 213.23 262.33C205.91 234.88 215.06 225.72 222.37 226.64C224.19 226.86 220.91 180.47 220.99 176.63C221.55 149.05 233.76 129.97 254.96 113.5C267.59 103.69 283.57 97.29 298.5 91.91C313.44 86.52 329.12 79.72 345.12 78.37C357.89 77.3 371.31 78.49 384.02 79.51C393.23 80.25 401.96 80.13 410.07 84.78C418.47 89.59 426.67 93.62 435.7 97.33C486.08 118.01 489 175.34 481.36 221.15C496 222.98 500.28 233.35 494.17 252.26C485.03 280.63 473.13 298.02 458.48 292.53Z" />
				<path id="&lt;Path&gt;" class="shp5" d="M451.24 59.39C466.16 68.53 474.79 98.24 480.11 113.05C488.79 137.18 488.74 162.91 487.77 188.21C487.22 202.12 482.68 213.58 487.38 227.19C481.44 228.76 476.09 229.28 470.28 232.39C464.75 235.34 460.12 238.87 461.02 247.62C454.93 239.09 458.48 221.77 462.4 213.1C470.82 194.48 470.41 171.8 459.1 154.19C453.31 145.16 445.96 135.13 435.55 131.15C428.21 128.34 422.18 125 418.54 117.67C413.04 106.59 408.12 95.23 394.3 93.52C373.76 90.98 352.06 100.66 337.09 113.94C328.75 121.34 320.71 130.24 309.26 131.88C297.01 133.65 285.73 129.09 273.64 128.12C257.69 126.85 241.18 138.97 236.66 154.16C231.12 172.73 242.9 188.74 244.35 206.51C245.46 220.39 243.47 234.9 241.32 248.6C238.41 241.5 236.05 232.04 230.28 226.99C225.73 223.01 219.09 223.35 214.51 219.21C208.47 213.76 211.14 208.73 209.69 201.98C208.26 195.25 203.45 190.03 204.72 182.7C206.29 173.71 208.72 169.83 205 160.68C200.64 149.92 204.98 148.37 209.36 138.93C212.46 132.25 208.03 127.61 207.33 121.17C206.62 114.7 209.72 108.81 213.47 103.69C217.28 98.47 222.94 94.89 226.92 89.84C231.8 83.64 229.39 74.6 233.92 69.36C237.87 64.78 246.97 63.5 252.7 63.28C257.92 63.09 262.36 61.47 266.75 58.29C274.94 52.36 281.45 43.04 291.62 40.31C304.91 36.75 318.88 37.89 331.45 31.51C338.73 27.82 342.24 24.27 350.91 25.35C359.42 26.4 366.69 30.89 375.23 32.49C385.3 34.36 395.14 29.13 404.54 34.22C414.76 39.75 417.11 50.56 428.51 55.28C434.77 57.88 442.54 55.42 448.64 58.03C449.53 58.41 450.39 58.86 451.24 59.39Z" />
				<path id="&lt;Path&gt;" class="shp4" d="M217.94 261.44C221.99 267.5 223.82 274.94 227.6 281.12C222.21 276.68 220.39 271.66 218.58 265.29C216.74 258.81 212.86 253.04 212.64 246.11C212.44 240.21 216.88 231.33 224.07 233.65C228.49 235.09 231.42 239.52 233.38 243.36C235.11 246.75 237.69 252.53 236.37 256.6C235.73 258.55 232.49 260.09 233.13 262.74C233.7 265.09 236.82 265.7 237.71 262.79C240.9 262.52 245.27 272.93 245.09 275.66C244.57 283.72 232.17 280.6 231.37 273.39C231.03 270.24 230.16 267.14 229.9 264.03C229.46 258.57 232.46 253.34 229.83 247.95C228.25 244.72 222.85 239.11 218.9 241.29C212.76 244.69 217.1 254.58 218.59 259.18C220.72 265.71 223.14 272.15 224.67 278.87C222.27 275.92 220.62 271.39 219.29 267.45" />
				<path id="&lt;Path&gt;" class="shp4" d="M491.08 254.16C487.04 260.21 485.21 267.67 481.43 273.84C486.82 269.39 488.63 264.39 490.44 258.01C492.3 251.53 496.17 245.77 496.39 238.83C496.59 232.93 492.14 224.05 484.95 226.38C480.54 227.81 477.61 232.25 475.65 236.08C473.92 239.47 471.34 245.25 472.66 249.32C473.29 251.27 476.54 252.81 475.89 255.46C475.32 257.81 472.21 258.42 471.31 255.52C468.13 255.24 463.76 265.65 463.94 268.38C464.46 276.44 476.86 273.32 477.65 266.11C477.99 262.96 478.87 259.86 479.12 256.75C479.56 251.29 476.56 246.06 479.21 240.67C480.78 237.44 486.18 231.83 490.12 234.01C496.27 237.41 491.93 247.31 490.43 251.91C488.31 258.43 485.88 264.87 484.36 271.59C486.75 268.64 488.41 264.11 489.73 260.17" />
			</g>
			<path id="&lt;Path&gt;" class="shp6" d="M230.07 810.07C223.62 813.69 219.47 820.23 216.4 831.66C212.25 847.02 213.37 863.64 213.37 879.4C213.37 896.57 213.41 911.91 217.69 928.51C220.1 937.89 223.5 946.34 226.36 955.48C236.34 987.45 233.9 1029.14 233.9 1062.24C233.9 1082.17 231.78 1101.96 231.74 1121.7C231.7 1139.16 240.29 1152.96 238.22 1171.66C235.68 1194.46 227.22 1217.7 223.34 1240.82C219.51 1263.52 226.52 1279.4 227.41 1301.09C228.57 1329.21 227.52 1357.49 226.54 1385.49C226.34 1391.35 226.87 1397.32 226.87 1403.23C226.87 1405.16 226.11 1409.2 227.57 1410.61C228.92 1411.91 233.86 1411.31 235.69 1411.31C243.27 1411.31 250.23 1411.13 257.48 1412.96C262.4 1414.22 267.35 1413.37 272.29 1414.14C275.93 1414.73 279.6 1415.42 283.23 1416.01C286.89 1416.63 292.99 1419.41 296.77 1417.93C301.76 1415.98 300.57 1407.1 300.98 1402.95C301.75 1394.99 304.93 1386.86 306.74 1378.96C310.59 1362.18 314.83 1345.41 316.03 1328.15C317.54 1306.36 316.6 1284.7 320.34 1263.27C323.9 1242.96 327.21 1221.95 328.94 1200.59C332.29 1159.04 331.15 1115.95 331.15 1074.15C331.15 1028.06 342.41 981.55 348.44 936.92C349.65 927.97 350.28 919.71 353.58 912.14C373.65 960.67 369.66 1022.02 377.63 1073.89C381.58 1099.68 388.18 1124.27 388.43 1150.82C388.71 1182.24 388.32 1212.14 394.91 1242.73C404.21 1285.95 409.3 1328.14 416.46 1371.61C419.18 1388.13 424.65 1405.54 425.68 1422.07C430.89 1424.65 444.76 1417.96 450.25 1416.95C459.88 1415.16 469.78 1415.78 479.52 1415.68C486.66 1415.61 491.79 1416.58 493.54 1408.84C494.92 1402.78 492.41 1396.87 491.84 1390.91C491.41 1386.29 492.56 1382.52 492.88 1378.04C493.71 1366.46 488.47 1355.29 488.92 1343.56C489.58 1326.25 488 1309.47 486.76 1292.48C483.03 1240.91 472.65 1184.45 476.86 1132.86C480.5 1088.28 467.79 1043.03 474.61 998.22C477.64 978.3 480.19 958.14 482.2 938.05C485.25 907.58 484.71 876.98 481 846.54C478.93 829.48 474.63 811.06 456.13 806.05C438.05 801.16 411.66 806.05 392.81 806.05C372.73 806.05 352.64 806.05 332.57 806.05C305.89 806.05 279.21 806.05 252.53 806.05C242.82 806.05 235.6 806.98 230.07 810.07Z" />
			<g id="&lt;Group&gt;">
				<path id="&lt;Path&gt;" class="shp7" d="M223.25 1419.96C217.62 1426.23 215.12 1435.32 209.27 1441.75C197.92 1454.24 180.97 1453.93 166.53 1459.93C158.25 1463.37 145.34 1470.01 142.8 1479.49C139.25 1492.74 157.34 1501.23 167.78 1503.12C184.61 1506.14 202.06 1501.68 218.17 1497.02C231.61 1493.13 245.36 1490.31 258.64 1485.87C268.5 1482.58 280.47 1481.04 288.48 1473.82C296.85 1466.27 295.65 1456.36 297.43 1446.31C298.28 1441.47 306.63 1421.13 295.35 1421.69C289.01 1422 286.89 1435.28 283.1 1439.11C275.87 1446.39 265.84 1451.14 255.41 1449.73C261.33 1450.53 261.43 1424.82 257.28 1421.59C253.64 1418.76 247.17 1418.96 242.88 1417.57C234.8 1414.95 228.88 1413.72 223.25 1419.96Z" />
			</g>
			<g id="&lt;Group&gt;">
				<path id="&lt;Path&gt;" class="shp7" d="M488.81 1485.29C505.8 1486.7 544.63 1494.68 553.77 1474.18C559.52 1461.26 549.82 1452.05 538.11 1450.71C531.88 1450 524.87 1452.15 518.81 1450.26C512.28 1448.24 507.03 1442.65 502.65 1437.73C499.95 1434.7 496.39 1432.54 493.05 1429.61C488.83 1425.94 487.36 1421.66 481.52 1419.76C476.19 1418.03 463.19 1419.61 458.79 1423.17C453.61 1427.35 452.38 1444.04 459.14 1447.89C452.82 1444.29 443.04 1444.89 437.53 1440.84C432.49 1437.13 435.59 1429.64 430.89 1425.97C426.93 1422.86 424.85 1425.3 424.49 1430.11C423.56 1442.32 420.52 1457.49 428.12 1468.34C440.64 1486.21 469.78 1483.7 488.81 1485.29Z" />
			</g>
			<path id="&lt;Path&gt;" class="shp6" d="M296.88 380.51C294.37 380.65 291.78 380.48 289.27 380.83C286.04 381.27 282.91 382.33 279.55 381.95C245.38 378.23 209.48 385.04 184.22 409.86C166.96 426.81 165.45 450.71 153.69 470.88C118.1 531.94 53.36 581.19 69.23 660.87C73.16 680.64 79.03 701.2 87.02 719.43C89.94 726.08 91.81 733.46 93.99 740.37C96.42 748.07 99.93 755.32 103.34 762.6C106.64 769.66 108.88 777.68 112.85 784.35C120.98 797.96 125.22 813.35 132.96 827.27C138.2 836.71 147.28 830.57 154.97 827.18C168.13 821.38 179.76 812.54 190.62 803.23C201.09 794.26 216.74 782.01 209.79 766.59C204.01 753.78 192.82 744.49 186.23 732.23C176.44 714.04 171.27 693.82 162.46 675.15C156.05 661.59 151.59 646 153.81 630.62C155.32 620.23 160.02 611.01 164.83 601.51C171.9 587.57 178.17 574.5 187.23 561.83C189.27 558.98 210.89 530.6 210.91 530.65C214.71 542.84 216.35 566.29 216.08 580.12C215.69 599.78 216.6 620.07 215.41 639.77C213.94 664.07 212.12 690.43 206.2 714.09C201.92 731.23 194.63 748.32 189.5 765.71C184.74 781.87 182.35 798.84 178.4 815.38C170.84 847.07 165.85 878.34 163.54 910.76C161.16 944.05 159.24 974.49 170.32 1006.43C172.76 1013.49 175.01 1022.18 179.96 1028.27C199.25 1052.05 250.28 1053.11 277.78 1054.14C318.73 1055.68 357.61 1046.85 393.88 1027.73C423.52 1012.12 448.14 1005.91 444.99 968.98C442.73 942.43 429.84 917.47 424.57 891.48C415.23 845.47 404.19 799.37 392.64 752.98C387.62 732.86 383.09 712.04 380.03 691.51C377.29 673.08 371.75 654.83 369.02 636.15C366.06 615.99 364.01 595.71 361.18 575.53C359.96 566.84 358.83 558.15 357.75 549.45C356.84 542.11 354.61 533.97 356.58 526.73C360.86 511.03 358.67 495.4 360.12 479.3C361.29 466.38 363.18 453.34 364.87 440.5C366.31 429.64 369.95 419.51 372.7 409C374.88 400.65 382.93 393.49 381.69 384.22C366.62 392.71 344.76 395.88 329.47 385.79C323.89 382.1 314.56 373.34 314.83 366.12C309.67 367.51 308.14 375.36 303.92 378.4C301.78 379.94 299.38 380.38 296.88 380.51Z" />
			<path id="&lt;Path&gt;" class="shp1" d="M219.36 725.36C218.73 730.51 218.11 735.67 217.51 740.8C214.02 770.44 213.4 802.14 203.22 830.52C188.12 872.67 172.49 913.16 165.67 957.26C162.92 975.02 164.45 989.52 170.32 1006.43C172.76 1013.49 175.01 1022.18 179.96 1028.27C199.25 1052.05 250.28 1053.11 277.78 1054.14C318.73 1055.68 357.61 1046.85 393.88 1027.73C423.52 1012.12 448.14 1005.91 444.99 968.98C442.73 942.43 429.84 917.47 424.57 891.48C415.23 845.47 404.19 799.37 392.64 752.98C387.62 732.86 383.09 712.04 380.03 691.51C377.29 673.08 371.75 654.83 369.02 636.15C366.06 615.99 364.01 595.71 361.18 575.53C359.96 566.84 358.83 558.15 357.75 549.45C356.84 542.11 354.61 533.97 356.58 526.73C360.86 511.03 358.67 495.4 360.12 479.3C361.29 466.38 363.18 453.34 364.87 440.5C366.31 429.64 369.95 419.51 372.7 409C374.88 400.65 382.93 393.49 381.69 384.22C366.62 392.71 344.76 395.88 329.47 385.79C323.89 382.1 314.56 373.34 314.83 366.12C309.67 367.51 308.14 375.36 303.92 378.4C301.78 379.94 299.38 380.38 296.88 380.51C294.37 380.65 291.78 380.48 289.27 380.83C286.04 381.27 282.91 382.33 279.55 381.95C245.38 378.23 209.48 385.04 184.22 409.86C166.96 426.81 165.45 450.71 153.69 470.88C118.1 531.94 53.36 581.19 69.23 660.87C73.16 680.64 79.03 701.2 87.02 719.43C89.94 726.08 91.81 733.46 93.99 740.37C96.42 748.07 99.93 755.32 103.34 762.6C106.64 769.66 108.88 777.68 112.85 784.35C120.98 797.96 125.22 813.35 132.96 827.27C138.2 836.71 147.28 830.57 154.97 827.18C168.13 821.38 179.76 812.54 190.62 803.23C201.09 794.26 216.74 782.01 209.79 766.59C204.01 753.78 192.82 744.49 186.23 732.23C176.44 714.04 171.27 693.82 162.46 675.15C156.05 661.59 151.59 646 153.81 630.62C155.32 620.23 160.02 611.01 164.83 601.51C171.9 587.57 178.17 574.5 187.24 561.82C194.91 551.1 201.82 532.67 212.33 524.86C241.61 503.11 231.48 558.79 231.6 570.72C232.12 622.55 225.51 674.32 219.36 725.36Z" />
			<path id="&lt;Path&gt;" class="shp8" d="M299.14 381.77C298.5 382.69 298.64 383.98 299.36 387.17C300.17 390.75 303.82 394.19 306.35 396.6C313.06 403.03 322.12 407.3 330.75 410.43C348.16 416.72 364.73 420.92 375.36 401.96C377.39 398.32 378.21 386.18 381.69 384.22C366.62 392.71 344.76 395.88 329.47 385.79C323.89 382.1 314.56 373.34 314.83 366.12C309.67 367.51 308.14 375.36 303.92 378.4C301.32 380.28 299.81 380.82 299.14 381.77Z" />
			<path id="&lt;Path&gt;" class="shp6" d="M510.43 823.89C518.38 878.37 537.86 933.73 533.22 989.18C530.43 1022.63 504.49 1035.52 472.59 1040.4C429.49 1046.97 381.48 1058.44 337.75 1056.41C316.19 1055.41 262.3 1059.32 247.13 1042.66C226.32 1019.81 256.59 962.53 259.48 936.75C264.9 888.57 294.5 843.94 302.24 795.19C309.41 750.16 318.15 704.88 320.26 658.98C322.09 619 328.41 579.65 330.81 539.83C332.76 507.73 339.1 474.1 339.02 442.21C339 434.68 338.3 436.06 332.8 435.77C327.71 435.49 322.18 434.77 317.07 434.94C316.94 431.76 317.09 428.5 316.99 425.3C316.94 423.72 315.37 416.59 315.88 415.55C318.52 410.17 330.85 410.57 335.78 409.51C344.2 407.68 355.36 405.43 362.52 400.44C367.55 396.93 373.46 392.02 376.03 386.27C380.61 376.04 378.19 365.72 392.95 370.63C400.61 373.18 407.56 380.18 415.43 381.65C422.8 383.04 430.75 382.91 438.3 383.55C450.78 384.61 465.41 382.92 477.06 386.24C501.06 393.07 510.02 415.34 525.64 428.34C577.87 471.73 682.63 557.98 655.03 635.89C647.81 656.27 640.68 676.91 632.29 696.83C621.03 723.55 608.75 750.09 594.71 775.42C588.36 786.86 583.7 802 575.52 812.15C567.29 822.39 564.59 819.94 552.32 815.36C538.75 810.3 494.32 802.72 487.73 789.52C482.05 778.11 498.26 755.35 502.86 745.18C523.81 698.73 556.86 654.09 563.55 602.75C566.33 581.48 558.95 570.93 547.23 554C538.38 541.2 503.53 489.82 485.18 516.46C477.82 527.15 487.06 550.18 487.46 562.09C488.2 585 488.55 607.88 489.95 630.78C493.86 694.96 501.17 759.16 510.28 822.83C510.32 823.18 510.38 823.54 510.43 823.89Z" />
			<path id="&lt;Path&gt;" class="shp1" d="M490.98 826.61C491.84 829.39 492.76 832.12 493.75 834.81C505.59 866.86 506.11 902.65 513.39 936.16C518.57 959.99 524.8 985.41 520.45 1009.93C516.51 1032.1 492.91 1037.29 472.59 1040.4C429.49 1046.97 381.48 1058.44 337.75 1056.41C316.19 1055.41 262.3 1059.32 247.13 1042.66C226.32 1019.81 256.59 962.53 259.48 936.75C264.9 888.57 294.5 843.94 302.24 795.19C309.41 750.16 318.15 704.88 320.26 658.98C322.09 619 328.41 579.65 330.81 539.83C332.76 507.73 339.1 474.1 339.02 442.21C339 434.68 338.3 436.06 332.8 435.77C327.71 435.49 322.18 434.77 317.07 434.94C316.94 431.76 317.09 428.5 316.99 425.3C316.94 423.72 315.37 416.59 315.88 415.55C318.52 410.17 330.85 410.57 335.78 409.51C344.2 407.68 355.36 405.43 362.52 400.44C367.55 396.93 373.46 392.02 376.03 386.27C380.61 376.04 378.19 365.72 392.95 370.63C400.61 373.18 407.56 380.18 415.43 381.65C422.8 383.04 430.75 382.91 438.3 383.55C450.78 384.61 465.41 382.92 477.06 386.24C501.06 393.07 510.02 415.34 525.64 428.34C577.87 471.73 682.63 557.98 655.03 635.89C647.81 656.27 640.68 676.91 632.29 696.83C621.03 723.55 608.75 750.09 594.71 775.42C588.36 786.86 583.7 802 575.52 812.15C567.29 822.39 564.59 819.94 552.32 815.36C538.75 810.3 494.32 802.72 487.73 789.52C482.05 778.11 498.26 755.35 502.86 745.18C523.81 698.73 556.86 654.09 563.55 602.75C566.33 581.48 558.95 570.93 547.23 554C537.41 539.81 517.74 506.7 497.11 508.93C471.32 511.72 470.61 575.17 469.11 593.88C465.18 642.95 473.98 691.86 477.97 740.86C480.21 768.4 482.48 799.25 490.98 826.61Z" />
			<path id="&lt;Path&gt;" class="shp8" d="M365.98 400.08C375.25 447.62 368.68 495.78 360.79 542.99C354.44 580.97 355 617.01 352.67 655.47C351.05 682.23 346.28 709.05 343.22 735.73C340.89 755.93 335.34 775.53 333.17 795.73C328.97 834.81 316.97 874.26 308.02 913.33C301.01 943.92 295.11 977.56 286.61 1008.86C277.96 1040.75 271.91 1054.59 236.45 1052.49C248.11 1018.44 257.14 982.57 266.24 947.6C273.39 920.05 275.97 892.81 286.27 866.48C295.15 843.79 298.45 819.11 302.24 795.19C309.41 750.16 318.15 704.88 320.26 658.98C322.09 619 328.41 579.65 330.81 539.83C332.76 507.73 339.1 474.1 339.02 442.21C339 434.68 338.3 436.06 332.8 435.77C327.71 435.49 322.18 434.77 317.07 434.94C316.94 431.76 317.09 428.5 316.99 425.3C316.94 423.72 315.37 416.59 315.88 415.55C318.52 410.17 330.85 410.57 335.78 409.51C344.2 407.68 355.36 405.43 362.52 400.44C362.78 400.26 363.05 400.07 363.31 399.88" />
			<path id="&lt;Path&gt;" class="shp8" d="M352.07 430.65C351.45 430.83 350.83 431 350.21 431.17C347.79 431.82 317.46 436.67 317.29 435.43C316.81 432.1 317.09 428.68 316.99 425.3C316.94 423.72 315.37 416.59 315.88 415.55C318.52 410.17 330.85 410.57 335.78 409.51C344.2 407.68 355.36 405.43 362.52 400.44C367.55 396.93 373.46 392.02 376.03 386.27C380.61 376.04 378.19 365.72 392.95 370.63C397.02 371.99 408.7 376.69 410.53 380.89C412.64 385.74 406.68 393.97 404.05 397.51C391.98 413.68 371.38 425.09 352.07 430.65Z" />
			<path id="&lt;Path&gt;" class="shp6" d="M459.39 449.44C464.74 546.64 470.13 610.13 475.57 639.92C479.57 580.47 484.04 537.25 488.98 510.23C472.42 476.38 462.55 456.12 459.39 449.44Z" />
			<path id="&lt;Path&gt;" class="shp6" d="M242.25 472C236.89 569.2 231.5 632.69 226.08 662.47C222.07 603.03 217.6 559.81 212.66 532.79C229.22 498.94 239.08 478.68 242.25 472Z" />
			<g id="&lt;Group&gt;">
				<path id="&lt;Path&gt;" class="shp9" d="M323.24 235.22C322.89 236.36 322.19 237.61 321.05 238.99C315.82 245.3 306.58 246.73 298.88 246.73C277.51 246.73 270.56 240.43 270.07 235.22C269.6 230.28 279.68 226.38 283.13 224.82C288.32 222.49 292.96 222.24 298.56 222.93C301.31 223.27 304.02 223.08 306.7 223.67C312.87 225.03 325.47 227.84 323.24 235.22Z" />
				<g id="&lt;Group&gt;">
					<path id="&lt;Path&gt;" class="shp10" d="M310.14 234.66C310.14 241.43 304.65 246.92 297.89 246.92C291.11 246.92 285.63 241.43 285.63 234.66C285.63 227.89 291.11 222.41 297.89 222.41C304.65 222.41 310.14 227.89 310.14 234.66Z" />
					<path id="&lt;Path&gt;" class="shp11" d="M303.54 234.66C303.54 237.79 301 240.32 297.89 240.32C294.76 240.32 292.23 237.79 292.23 234.66C292.23 231.54 294.76 229 297.89 229C301 229 303.54 231.54 303.54 234.66Z" />
				</g>
				<path id="&lt;Path&gt;" class="shp4" d="M322.21 237.49C317.66 228.11 309.8 223.95 298.6 225.01C295.58 225.29 277.12 222.41 271.37 237.49C265.21 236.97 265.21 233.64 271.37 227.5C277.54 221.36 284.82 218.18 293.21 217.97C303.15 217.52 337.18 228.87 322.21 237.49Z" />
				<path id="&lt;Path&gt;" class="shp12" d="M267.28 235.22C268.5 221.6 278.93 214.79 298.6 214.79C318.27 214.79 327.5 221.6 326.29 235.22C321.44 225.23 311.6 220.24 296.79 220.24C282 220.24 272.16 225.23 267.28 235.22Z" />
			</g>
			<path id="&lt;Path&gt;" class="shp13" d="M252.13 1436.96C251.66 1438.03 250.4 1438.51 249.34 1438.04L226.87 1428.17C225.8 1427.69 225.31 1426.45 225.78 1425.38C226.26 1424.29 227.51 1423.81 228.59 1424.29L251.05 1434.16C252.12 1434.63 252.61 1435.88 252.13 1436.96Z" />
			<path id="&lt;Path&gt;" class="shp13" d="M487.33 1426.59C487.7 1427.71 487.27 1428.85 486.41 1429.11L468.14 1435.06C467.27 1435.35 466.27 1434.67 465.91 1433.55C465.55 1432.42 465.96 1431.3 466.83 1431.02L485.09 1425.09C485.97 1424.8 486.97 1425.48 487.33 1426.59Z" />
			<path id="&lt;Path&gt;" class="shp13" d="M494.43 1433.89C494.79 1435.01 494.37 1436.15 493.5 1436.43L475.23 1442.37C474.36 1442.64 473.35 1441.97 473 1440.86C472.64 1439.74 473.05 1438.61 473.92 1438.32L492.19 1432.4C493.06 1432.11 494.06 1432.77 494.43 1433.89Z" />
			<path id="&lt;Path&gt;" class="shp13" d="M498.17 1441.5C498.54 1442.61 498.13 1443.75 497.25 1444.04L478.98 1449.98C478.11 1450.25 477.11 1449.57 476.75 1448.46C476.39 1447.34 476.8 1446.21 477.67 1445.93L495.94 1440C496.8 1439.72 497.81 1440.38 498.17 1441.5Z" />
			<path id="&lt;Path&gt;" class="shp13" d="M245.48 1443.61C245.01 1444.67 243.76 1445.16 242.69 1444.7L220.22 1434.81C219.15 1434.34 218.66 1433.09 219.14 1432.02C219.61 1430.94 220.86 1430.46 221.93 1430.93L244.4 1440.8C245.47 1441.28 245.96 1442.53 245.48 1443.61Z" />
			<path id="&lt;Path&gt;" class="shp13" d="M238.6 1450.48C238.13 1451.56 236.88 1452.05 235.8 1451.58L213.34 1441.7C212.27 1441.23 211.78 1439.98 212.26 1438.9C212.73 1437.83 213.98 1437.34 215.05 1437.81L237.51 1447.7C238.59 1448.18 239.07 1449.42 238.6 1450.48Z" />
			<path id="&lt;Path&gt;" class="shp5" d="M326.97 209.79C332.01 207.82 332.75 204.3 329.2 199.24C323.85 191.63 312.71 186.56 298.91 188.68C285.11 190.79 269.52 195.43 263.28 207.26C259.13 215.14 259.13 218.66 263.28 217.82C270.11 210.5 278.72 206.13 289.12 204.72C299.51 203.32 312.13 205.01 326.97 209.79Z" />
			<g id="&lt;Group&gt;">
				<path id="&lt;Path&gt;" class="shp9" d="M373.16 235.22C373.51 236.36 374.21 237.61 375.34 238.99C380.58 245.3 389.82 246.73 397.52 246.73C418.89 246.73 425.85 240.43 426.34 235.22C426.8 230.28 416.72 226.38 413.27 224.82C408.07 222.49 403.44 222.24 397.84 222.93C395.1 223.27 392.38 223.08 389.71 223.67C383.53 225.03 370.93 227.84 373.16 235.22Z" />
				<g id="&lt;Group&gt;">
					<path id="&lt;Path&gt;" class="shp10" d="M386.27 234.66C386.27 241.43 391.75 246.92 398.52 246.92C405.29 246.92 410.78 241.43 410.78 234.66C410.78 227.89 405.29 222.41 398.52 222.41C391.75 222.41 386.27 227.89 386.27 234.66Z" />
					<path id="&lt;Path&gt;" class="shp11" d="M392.86 234.66C392.86 237.79 395.39 240.32 398.52 240.32C401.64 240.32 404.17 237.79 404.17 234.66C404.17 231.54 401.64 229 398.52 229C395.39 229 392.86 231.54 392.86 234.66Z" />
				</g>
				<path id="&lt;Path&gt;" class="shp4" d="M374.2 237.49C378.73 228.11 386.6 223.95 397.8 225.01C400.82 225.29 419.27 222.41 425.03 237.49C431.19 236.97 431.19 233.64 425.03 227.5C418.86 221.36 411.59 218.18 403.2 217.97C393.25 217.52 359.22 228.87 374.2 237.49Z" />
				<path id="&lt;Path&gt;" class="shp12" d="M429.12 235.22C427.91 221.6 417.47 214.79 397.8 214.79C378.14 214.79 368.91 221.6 370.12 235.22C374.97 225.23 384.79 220.24 399.6 220.24C414.4 220.24 424.24 225.23 429.12 235.22Z" />
			</g>
			<path id="&lt;Path&gt;" class="shp5" d="M369.44 209.79C364.39 207.82 363.65 204.3 367.21 199.24C372.55 191.63 383.69 186.56 397.49 188.68C411.29 190.79 426.89 195.43 433.13 207.26C437.28 215.14 437.28 218.66 433.13 217.82C426.3 210.5 417.68 206.13 407.29 204.72C396.9 203.32 384.28 205.01 369.44 209.79Z" />
			<path id="&lt;Path&gt;" class="shp4" d="M337.2 282.46C339.35 286.07 343.74 287.78 350.38 287.59C357.02 287.39 362.39 286.54 366.5 285.03C366.5 292.3 361.61 295.94 351.85 295.94C337.2 295.94 334.72 285.1 337.2 282.46Z" />
			<g id="&lt;Group&gt;">
				<path id="&lt;Path&gt;" class="shp14" d="M317.24 309.83L389.7 309.15C384.64 325.92 371.84 334.4 351.28 334.59C330.74 334.79 319.39 326.53 317.24 309.83Z" />
				<path id="&lt;Path&gt;" class="shp9" d="M327.51 315.96L379.43 315.96C373.59 319.9 364.72 321.87 352.82 321.87C340.91 321.87 332.48 319.9 327.51 315.96Z" />
			</g>
			<path id="&lt;Path&gt;" class="shp15" d="M338.52 421.74C338.52 425.84 335.2 429.17 331.1 429.17C327 429.17 323.67 425.84 323.67 421.74C323.67 417.63 327 414.31 331.1 414.31C335.2 414.31 338.52 417.63 338.52 421.74Z" />
			<path id="&lt;Path&gt;" class="shp15" d="M360.9 479.43C360.9 483.54 357.58 486.86 353.47 486.86C349.37 486.86 346.04 483.54 346.04 479.43C346.04 475.33 349.37 472 353.47 472C357.58 472 360.9 475.33 360.9 479.43Z" />
			<path id="&lt;Path&gt;" class="shp15" d="M353.47 544.67C353.47 548.77 350.14 552.1 346.04 552.1C341.94 552.1 338.61 548.77 338.61 544.67C338.61 540.57 341.94 537.24 346.04 537.24C350.14 537.24 353.47 540.57 353.47 544.67Z" />
			<path id="&lt;Path&gt;" class="shp15" d="M346.04 609.91C346.04 614.01 342.72 617.34 338.61 617.34C334.51 617.34 331.18 614.01 331.18 609.91C331.18 605.8 334.51 602.48 338.61 602.48C342.72 602.48 346.04 605.8 346.04 609.91Z" />
			<path id="&lt;Path&gt;" class="shp15" d="M338.61 675.14C338.61 679.25 335.29 682.58 331.18 682.58C327.08 682.58 323.75 679.25 323.75 675.14C323.75 671.05 327.08 667.72 331.18 667.72C335.29 667.72 338.61 671.05 338.61 675.14Z" />
			<path id="&lt;Path&gt;" class="shp15" d="M331.18 740.39C331.18 744.49 327.86 747.81 323.75 747.81C319.65 747.81 316.32 744.49 316.32 740.39C316.32 736.28 319.65 732.95 323.75 732.95C327.86 732.95 331.18 736.28 331.18 740.39Z" />
			<path id="&lt;Path&gt;" class="shp15" d="M323.75 805.63C323.75 809.73 320.43 813.05 316.32 813.05C312.22 813.05 308.9 809.73 308.9 805.63C308.9 801.52 312.22 798.2 316.32 798.2C320.43 798.2 323.75 801.52 323.75 805.63Z" />
			<path id="&lt;Path&gt;" class="shp15" d="M306.16 878.3C306.16 882.4 302.83 885.72 298.73 885.72C294.63 885.72 291.3 882.4 291.3 878.3C291.3 874.19 294.63 870.86 298.73 870.86C302.83 870.86 306.16 874.19 306.16 878.3Z" />
			<path id="&lt;Path&gt;" class="shp15" d="M290.55 950.96C290.55 955.06 287.23 958.38 283.12 958.38C279.02 958.38 275.69 955.06 275.69 950.96C275.69 946.86 279.02 943.54 283.12 943.54C287.23 943.54 290.55 946.86 290.55 950.96Z" />
			<path id="&lt;Path&gt;" class="shp3" d="M549.73 737.77C552.24 737.79 554.39 738.36 555.93 739.7C563.08 745.98 560.78 772.29 559.26 780.58C554.03 808.93 534.87 832.04 522.9 857.63C514.31 875.99 508.02 892.36 490.86 904.21C478.54 912.72 439.09 947.89 423.45 931C414.63 921.49 424.14 891.45 428.73 881.3C436.84 863.36 453.25 850.68 469.21 840.05C488.5 827.2 496.36 819.01 504.34 796.22C508.75 783.63 510.48 761.61 519.52 751.44C523.85 746.55 539.67 737.68 549.73 737.77Z" />
			<path id="&lt;Path&gt;" class="shp3" d="M139.18 738.7C137.13 738.71 135.38 739.19 134.13 740.28C128.3 745.4 130.17 766.84 131.42 773.6C135.68 796.72 151.3 815.56 161.06 836.43C168.06 851.4 173.2 864.74 187.18 874.4C197.22 881.34 229.39 910.02 242.15 896.25C249.34 888.49 241.59 863.99 237.84 855.72C231.23 841.09 217.85 830.76 204.83 822.1C189.11 811.62 182.7 804.93 176.19 786.36C172.6 776.09 171.19 758.14 163.81 749.84C160.28 745.86 147.38 738.64 139.18 738.7Z" />
			<g id="&lt;Group&gt;">
				<path id="&lt;Path&gt;" class="shp8" d="M393.59 960.42C391.25 939.07 383.93 899.98 402.93 885.77C422.82 870.86 468.71 885.39 492.42 880.94C521.58 875.44 514.78 893.91 514.82 922.41C514.85 943.93 516.29 977.11 498.3 991.34C462.62 1019.54 399.52 1014.39 393.59 960.42Z" />
				<path id="&lt;Path&gt;" class="shp1" d="M396.55 959.58C394.33 939.29 387.38 902.17 405.42 888.66C424.32 874.49 467.93 888.3 490.44 884.06C518.15 878.83 511.69 896.39 511.73 923.47C511.75 943.91 513.13 975.44 496.03 988.95C462.13 1015.75 402.18 1010.85 396.55 959.58Z" />
			</g>
			<g id="&lt;Group&gt;">
				<path id="&lt;Path&gt;" class="shp8" d="M164.08 929.39C162.35 912.57 156.98 881.78 170.94 870.57C185.57 858.83 219.33 870.28 236.75 866.76C258.21 862.43 253.2 876.99 253.23 899.44C253.25 916.39 254.3 942.54 241.08 953.75C214.84 975.97 168.43 971.9 164.08 929.39Z" />
				<path id="&lt;Path&gt;" class="shp1" d="M166.25 928.72C164.61 912.75 159.51 883.49 172.78 872.84C186.68 861.69 218.74 872.56 235.3 869.23C255.68 865.11 250.92 878.94 250.96 900.28C250.98 916.38 251.97 941.21 239.41 951.87C214.48 972.98 170.39 969.11 166.25 928.72Z" />
			</g>
			<path id="&lt;Path&gt;" class="shp1" d="M516.35 805.17C503.12 801.05 490.94 795.96 487.73 789.52C481.45 776.9 496.02 759.24 501.16 748.58C509.5 731.23 518.27 714.52 527.45 697.55C539.58 675.07 555.94 642.42 585.7 645.15C616.27 647.96 623.07 691.82 619.98 716.92C618.09 732.16 610.02 746.39 603.07 759.81C594.37 776.6 587.39 797.4 575.52 812.15C567.29 822.39 564.59 819.94 552.32 815.36C545.36 812.78 530.28 809.52 516.35 805.17Z" />
			<path id="&lt;Path&gt;" class="shp1" d="M153.23 668.58C147.19 665.68 139.96 666.62 131.12 673.82C80.06 715.33 107.05 780.64 132.96 827.27C138.2 836.71 147.28 830.57 154.97 827.18C168.13 821.38 179.76 812.54 190.62 803.23C201.09 794.26 216.74 782.01 209.79 766.59C204.01 753.78 192.82 744.49 186.23 732.23C178.27 717.43 170.7 676.96 153.23 668.58Z" />
			<g id="&lt;Group&gt;">
				<path id="&lt;Path&gt;" class="shp6" d="M299.92 518.28C313.86 529.51 312.09 545.96 300.85 559.9C289.62 573.84 273.18 580 259.25 568.76C245.31 557.53 243.1 537.12 254.34 523.18C265.57 509.24 285.98 507.04 299.92 518.28Z" />
				<path id="&lt;Path&gt;" class="shp16" d="M294.59 513.98C305.59 522.83 305.39 541.32 294.16 555.26C282.92 569.2 264.9 573.32 253.91 564.46C242.92 555.61 243.1 537.12 254.34 523.18C265.57 509.24 283.59 505.12 294.59 513.98Z" />
				<path id="&lt;Path&gt;" class="shp17" d="M277.76 515.91C283.85 520.82 283.74 531.05 277.52 538.77C271.31 546.49 261.34 548.76 255.24 543.86C249.16 538.96 249.27 528.73 255.48 521.01C261.7 513.29 271.67 511.01 277.76 515.91Z" />
				<path id="&lt;Path&gt;" class="shp2" d="M269.93 516.76C273.04 519.27 273.03 524.45 269.9 528.34C266.77 532.22 261.71 533.33 258.59 530.82C255.48 528.31 255.49 523.13 258.62 519.25C261.75 515.37 266.81 514.25 269.93 516.76Z" />
			</g>
			<path id="&lt;Path&gt;" class="shp2" d="M311.61 364.46C311.33 365.29 310.69 366.17 310.18 366.85C307.37 370.54 303.28 373.12 299.67 375.96C291.88 382.11 284.96 389.36 279.44 397.63C266.78 416.64 257.82 444.41 258.85 473.15C259.43 489.19 263.77 504.38 264.47 520.09C264.9 529.81 262.33 531.31 258.62 523.71C253.15 512.45 253.47 496.54 253.06 482.84C252.1 450.57 258.21 417.41 272.6 395.14C280.11 383.53 290.05 373.31 301.68 365.86C303.57 364.65 307.99 361.34 310.51 362.2C311.78 362.63 311.92 363.51 311.61 364.46Z" />
			<path id="&lt;Path&gt;" class="shp2" d="M428.04 406.75C432.86 417.92 436.46 429.6 439.27 441.42C443.13 457.68 448.98 461.16 459.8 473.39C469.13 483.92 475.58 501.7 477.69 515.36C478.64 521.51 479.5 529.87 474.17 534.41C468.24 539.48 452.78 537.46 460.33 527.41C465.72 520.23 471.17 521.67 471.31 511.52C471.41 505.15 469.05 498.22 466.48 492.49C461.44 481.2 451.72 468.7 438.16 468.57C415.44 468.37 409.03 507.91 419.43 523.13C423.1 528.5 431.63 526.18 433.73 531.88C436.7 539.93 427.2 541.76 422.17 542.8C414.23 544.43 410.54 517.73 409.96 513.92C408.98 507.5 408.63 500.34 409.16 493.73C409.92 484.32 413 478.79 419.03 472.27C424.37 466.5 431.97 460.79 432.27 452.22C432.62 442.01 425.82 429.77 422.74 420.18C422.57 419.63 422.39 419.08 422.21 418.53C420.5 413.24 418.71 407.96 416.59 402.82C415.52 400.23 414.36 397.68 413.1 395.18C412.14 393.29 410.91 391.16 409.66 389.41C408.75 388.12 407.93 386.75 407.09 385.41C405.98 383.66 404.7 382 403.35 380.43C400.84 377.52 398.15 374.75 395.5 371.94C393.57 369.9 391.5 368.09 389.92 365.73C389.11 364.52 387.15 361.99 387.39 360.44C388.04 356.1 394.13 361.05 395.59 362.24C396.85 363.27 398.05 364.34 399.2 365.48C401.25 367.5 403.75 369.01 405.73 371.06C414.46 380.12 421.13 391.62 426.36 402.98C426.95 404.23 427.5 405.49 428.04 406.75Z" />
		</g>
	</g>
</svg>